<?xml version="1.0" encoding="UTF-8"?>
<!--
  SDLC Dashboard icon sprite (Story 5.3 / DD-03).
  Exactly 12 icons — adding a 13th requires an ADR (DD-03 minimum set).
  Reference: <svg><use href="/static/icons/sprite.svg#<id>"/></svg>
  Stroke: 1.5px, square caps. circle-filled is the sole filled glyph.
-->
<svg xmlns="http://www.w3.org/2000/svg" style="display:none" aria-hidden="true">
  <symbol id="circle" viewBox="0 0 24 24" fill="none" stroke="currentColor" stroke-width="1.5" stroke-linecap="square">
    <circle cx="12" cy="12" r="9"/>
  </symbol>
  <symbol id="circle-filled" viewBox="0 0 24 24" fill="currentColor" stroke="none">
    <circle cx="12" cy="12" r="9"/>
  </symbol>
  <symbol id="check" viewBox="0 0 24 24" fill="none" stroke="currentColor" stroke-width="1.5" stroke-linecap="square" stroke-linejoin="miter">
    <path d="M5 12l5 5 9-10"/>
  </symbol>
  <symbol id="slash-circle" viewBox="0 0 24 24" fill="none" stroke="currentColor" stroke-width="1.5" stroke-linecap="square">
    <circle cx="12" cy="12" r="9"/>
    <path d="M7 7l10 10"/>
  </symbol>
  <symbol id="arrow-right" viewBox="0 0 24 24" fill="none" stroke="currentColor" stroke-width="1.5" stroke-linecap="square" stroke-linejoin="miter">
    <path d="M5 12h14M13 6l6 6-6 6"/>
  </symbol>
  <symbol id="chevron-right" viewBox="0 0 24 24" fill="none" stroke="currentColor" stroke-width="1.5" stroke-linecap="square" stroke-linejoin="miter">
    <path d="M9 6l6 6-6 6"/>
  </symbol>
  <symbol id="chevron-down" viewBox="0 0 24 24" fill="none" stroke="currentColor" stroke-width="1.5" stroke-linecap="square" stroke-linejoin="miter">
    <path d="M6 9l6 6 6-6"/>
  </symbol>
  <symbol id="copy" viewBox="0 0 24 24" fill="none" stroke="currentColor" stroke-width="1.5" stroke-linecap="square" stroke-linejoin="miter">
    <rect x="8" y="8" width="11" height="11"/>
    <path d="M5 16V6a2 2 0 0 1 2-2h10"/>
  </symbol>
  <symbol id="external-link" viewBox="0 0 24 24" fill="none" stroke="currentColor" stroke-width="1.5" stroke-linecap="square" stroke-linejoin="miter">
    <path d="M14 5h5v5M10 14L19 5M19 14v5H5V5h5"/>
  </symbol>
  <symbol id="info" viewBox="0 0 24 24" fill="none" stroke="currentColor" stroke-width="1.5" stroke-linecap="square">
    <circle cx="12" cy="12" r="9"/>
    <path d="M12 10v6M12 7h.01"/>
  </symbol>
  <symbol id="warning" viewBox="0 0 24 24" fill="none" stroke="currentColor" stroke-width="1.5" stroke-linecap="square" stroke-linejoin="miter">
    <path d="M12 3L2 21h20L12 3z"/>
    <path d="M12 10v5M12 18h.01"/>
  </symbol>
  <symbol id="error" viewBox="0 0 24 24" fill="none" stroke="currentColor" stroke-width="1.5" stroke-linecap="square" stroke-linejoin="miter">
    <circle cx="12" cy="12" r="9"/>
    <path d="M8 8l8 8M16 8l-8 8"/>
  </symbol>
</svg>
